<?xml version="1.0" standalone="no"?>
<!DOCTYPE svg PUBLIC "-//W3C//DTD SVG 20010904//EN"
 "http://www.w3.org/TR/2001/REC-SVG-20010904/DTD/svg10.dtd">
<svg version="1.0" xmlns="http://www.w3.org/2000/svg"
 width="640.000000pt" height="1280.000000pt" viewBox="0 0 640.000000 1280.000000"
 preserveAspectRatio="xMidYMid meet">
<metadata>
Created by potrace 1.15, written by Peter Selinger 2001-2017
</metadata>
<g transform="translate(0.000000,1280.000000) scale(0.100000,-0.100000)"
fill="#9e9e9e" stroke="none">
<path d="M2950 12790 c22 -7 20 -8 -15 -9 -60 -2 -24 -19 58 -27 l67 -7 0 -71
c0 -98 -6 -114 -52 -137 -41 -21 -43 -39 -4 -39 45 0 51 -22 50 -173 -1 -76
-6 -143 -11 -148 -5 -5 -38 -14 -74 -20 -35 -6 -75 -19 -89 -28 -36 -25 -101
-40 -130 -29 -20 7 -22 11 -10 18 11 7 12 10 2 10 -8 0 -11 7 -8 18 3 9 10 77
16 150 10 143 9 151 -44 179 -19 10 -19 11 2 22 13 7 27 32 38 68 21 73 20 90
-7 119 -16 17 -20 30 -15 49 7 26 5 27 -26 21 l-33 -7 35 21 35 21 -30 -6
c-85 -16 -109 -45 -120 -145 -4 -36 -16 -96 -27 -135 -12 -46 -21 -120 -25
-216 -6 -144 -5 -148 18 -180 l24 -34 -2 -350 c-4 -570 -42 -1791 -63 -1997
-16 -156 -69 -257 -240 -449 -242 -274 -335 -399 -426 -573 -89 -171 -139
-317 -200 -581 l-27 -120 12 -3030 c15 -3471 24 -4493 40 -4547 18 -56 72
-131 108 -148 37 -17 42 -30 13 -30 -30 0 -14 -28 29 -49 20 -11 54 -24 76
-30 23 -6 49 -18 60 -26 19 -15 18 -16 -20 -10 -22 4 -51 9 -65 11 -19 4 -16
0 13 -16 56 -31 171 -56 357 -79 304 -37 495 -46 1020 -45 526 1 671 5 855 24
61 7 123 12 140 11 16 0 32 4 36 10 3 6 33 12 66 14 98 6 172 54 257 164 62
81 102 157 122 231 15 58 17 148 21 820 2 415 -1 1077 -8 1470 -16 916 -16
905 -8 1490 l6 495 3 -445 c3 -400 4 -356 12 435 5 484 6 957 2 1050 -3 94 -7
589 -8 1100 -2 708 -6 954 -16 1030 -8 55 -13 123 -12 150 4 143 -152 533
-305 765 -81 123 -158 221 -298 380 -163 187 -263 337 -248 376 4 11 3 15 -5
10 -16 -10 -23 25 -25 124 -1 49 -4 87 -8 84 -13 -7 -22 77 -10 89 6 6 11 18
10 26 0 11 -3 10 -9 -4 -6 -13 -9 8 -10 65 0 47 -5 139 -10 205 -5 66 -17 314
-26 552 -15 366 -16 440 -4 487 7 31 10 59 7 63 -4 3 -7 -7 -7 -23 -1 -22 -3
-25 -10 -14 -15 26 -16 266 -1 284 7 8 11 25 8 38 -4 19 -5 18 -6 -6 -1 -22
-4 -27 -12 -19 -6 6 -13 71 -16 154 -3 103 -2 140 6 129 9 -13 11 -13 11 3 0
9 -5 17 -11 17 -7 0 -10 34 -7 106 3 93 5 107 24 122 46 37 57 67 49 140 -6
49 -10 60 -15 42 -4 -18 -8 -5 -13 44 -5 57 -4 73 10 88 15 17 15 22 -5 66
-12 28 -23 80 -27 127 -8 110 -52 168 -146 195 -71 21 -733 40 -669 20z m-280
-60 c13 -8 13 -10 -2 -10 -9 0 -20 5 -23 10 -8 13 5 13 25 0z m718 5 c-2 -3
-31 -7 -63 -10 -32 -3 -62 -8 -66 -11 -4 -2 -10 0 -13 5 -4 5 4 12 16 14 33 6
132 8 126 2z m-758 -70 c0 -8 -2 -15 -4 -15 -2 0 -6 7 -10 15 -3 8 -1 15 4 15
6 0 10 -7 10 -15z m487 -37 c-3 -8 -6 -5 -6 6 -1 11 2 17 5 13 3 -3 4 -12 1
-19z m58 13 c3 -5 1 -12 -5 -16 -5 -3 -10 1 -10 9 0 18 6 21 15 7z m-537 -110
c3 -8 -1 -12 -9 -9 -7 2 -15 10 -17 17 -3 8 1 12 9 9 7 -2 15 -10 17 -17z
m514 -113 c-6 -6 -7 0 -4 19 5 21 7 23 10 9 2 -10 0 -22 -6 -28z m-421 -53 c2
-76 -12 -204 -24 -212 -6 -4 -8 2 -4 18 4 13 7 78 7 144 0 77 3 116 10 109 5
-5 10 -32 11 -59z m412 -67 c-3 -48 -10 -85 -14 -82 -5 3 -7 22 -4 42 2 20 7
59 10 85 10 76 14 51 8 -45z m-46 -30 c-3 -8 -6 -5 -6 6 -1 11 2 17 5 13 3 -3
4 -12 1 -19z m-523 -84 c4 -10 1 -14 -6 -12 -15 5 -23 28 -10 28 5 0 13 -7 16
-16z m428 -110 c43 -5 47 -8 53 -40 3 -19 6 -609 6 -1311 l0 -1278 -32 -29
c-18 -16 -50 -49 -72 -74 -47 -55 -47 -60 8 -257 44 -157 47 -239 16 -403 -11
-62 -28 -206 -38 -320 -16 -190 -17 -398 -14 -2597 3 -2028 10 -3118 26 -3880
2 -103 -1 -162 -10 -190 -7 -22 -21 -67 -30 -100 -14 -47 -27 -69 -62 -100
-25 -22 -60 -61 -79 -88 -19 -26 -48 -56 -64 -66 -16 -9 -43 -36 -60 -59 -27
-38 -32 -41 -50 -30 -16 10 -24 10 -40 0 -42 -26 -50 -17 -44 46 5 46 3 60
-10 71 -14 12 -19 11 -36 -4 -11 -10 -17 -22 -14 -26 7 -12 -5 -49 -16 -49 -6
0 -12 11 -16 25 -11 44 -59 75 -115 75 l-49 0 0 53 c0 53 30 209 50 261 41
108 32 317 -25 556 -18 80 -40 190 -47 245 -15 115 -17 506 -4 735 6 122 5
184 -8 290 -21 178 -36 515 -36 825 -1 364 -15 625 -45 825 -14 96 -30 229
-35 295 -25 314 -54 1188 -65 1940 -5 367 -16 514 -46 630 -15 56 -55 107 -82
103 -23 -3 -70 -65 -61 -79 2 -5 -9 -40 -26 -80 -16 -39 -30 -78 -30 -87 0 -8
-2 -13 -5 -10 -3 3 -1 86 5 184 11 179 29 294 54 343 7 14 19 51 27 81 15 65
33 104 59 130 11 11 22 32 26 47 4 16 16 37 27 47 11 11 28 39 39 62 10 24 25
47 32 51 21 12 96 106 91 114 -5 7 10 21 193 183 62 54 112 103 112 108 0 6
11 23 25 40 14 16 25 39 25 51 0 33 25 109 33 101 4 -4 7 4 7 18 0 51 30 110
83 161 51 50 53 55 66 132 14 84 28 475 16 464 -3 -4 -8 -70 -10 -147 -2 -78
-8 -149 -14 -159 -8 -13 -9 0 -5 52 3 39 9 232 13 430 6 298 8 328 11 175 l3
-185 11 170 c10 154 6 617 -7 730 -2 22 0 51 5 65 5 14 10 176 11 360 1 184 4
308 7 275 l7 -60 1 79 c2 61 5 76 15 69 15 -13 107 -14 107 -2 0 5 -13 9 -29
9 -17 0 -33 5 -37 11 -7 11 85 8 198 -7z m-381 -314 l-8 -75 -2 116 c0 64 2
132 7 150 11 53 14 -99 3 -191z m513 78 c4 -62 7 -266 7 -453 1 -187 2 -619 4
-959 2 -341 0 -614 -5 -607 -4 7 -10 -27 -12 -76 -3 -48 -2 -92 3 -97 5 -6 9
-52 9 -104 l0 -94 -71 -66 c-39 -36 -66 -68 -60 -70 7 -2 5 -13 -8 -30 -10
-15 -21 -36 -23 -47 -4 -17 -6 -16 -13 9 -6 22 -4 31 10 38 12 7 14 13 6 18
-8 4 13 30 59 73 l70 67 0 1255 c0 698 4 1255 9 1255 4 0 11 -51 15 -112z m28
15 c-2 -54 1 -139 6 -189 8 -75 2 -183 -8 -164 -9 16 -14 450 -5 450 6 0 9
-37 7 -97z m-5 -435 c-3 -7 -5 -2 -5 12 0 14 2 19 5 13 2 -7 2 -19 0 -25z
m-547 0 c0 -18 -2 -20 -9 -8 -6 8 -7 18 -5 22 9 14 14 9 14 -14z m7 -200 c-2
-18 -4 -6 -4 27 0 33 2 48 4 33 2 -15 2 -42 0 -60z m100 -320 c-1 -46 -3 -9
-3 82 0 91 2 128 3 83 2 -46 2 -120 0 -165z m-130 -135 c-3 -10 -5 -2 -5 17 0
19 2 27 5 18 2 -10 2 -26 0 -35z m23 -233 c0 -5 -4 -10 -10 -10 -5 0 -10 5
-10 10 0 6 5 10 10 10 6 0 10 -4 10 -10z m-33 -482 c-3 -7 -5 -2 -5 12 0 14 2
19 5 13 2 -7 2 -19 0 -25z m10 -200 c-3 -7 -5 -2 -5 12 0 14 2 19 5 13 2 -7 2
-19 0 -25z m90 -10 c-3 -7 -5 -2 -5 12 0 14 2 19 5 13 2 -7 2 -19 0 -25z m-1
-118 c-2 -47 -16 -67 -16 -22 0 28 8 62 15 62 2 0 2 -18 1 -40z m481 -147 c-2
-16 -4 -3 -4 27 0 30 2 43 4 28 2 -16 2 -40 0 -55z m1 -167 c-12 -7 -25 -11
-27 -9 -8 6 34 31 42 26 5 -3 -2 -11 -15 -17z m709 -33 c-3 -10 -5 -2 -5 17 0
19 2 27 5 18 2 -10 2 -26 0 -35z m-416 -5 c15 -28 5 -21 -21 15 -15 20 -17 27
-6 18 9 -8 22 -23 27 -33z m-361 -22 c0 -3 -4 -8 -10 -11 -5 -3 -10 -1 -10 4
0 6 5 11 10 11 6 0 10 -2 10 -4z m91 -27 c-9 -22 -10 -22 -10 -3 -1 11 2 24 6
27 12 12 14 0 4 -24z m-731 17 c0 -2 -8 -10 -17 -17 -16 -13 -17 -12 -4 4 13
16 21 21 21 13z m610 -37 c0 -5 -4 -9 -10 -9 -5 0 -10 7 -10 16 0 8 5 12 10 9
6 -3 10 -10 10 -16z m-681 -39 c-13 -16 -25 -28 -27 -25 -5 5 37 55 45 55 2 0
-6 -13 -18 -30z m741 -30 c0 -5 -4 -10 -10 -10 -5 0 -10 5 -10 10 0 6 5 10 10
10 6 0 10 -4 10 -10z m-800 -3 c0 -2 -19 -21 -42 -42 l-43 -40 40 43 c36 39
45 47 45 39z m852 -22 c-2 -14 -8 -22 -13 -19 -5 3 -5 14 1 25 14 26 18 24 12
-6z m-135 -37 c-2 -13 -4 -5 -4 17 -1 22 1 32 4 23 2 -10 2 -28 0 -40z m-642
17 c-80 -67 -104 -82 -50 -32 33 31 65 56 70 56 6 1 -3 -10 -20 -24z m595 -2
c0 -13 3 -14 8 -6 5 7 15 -15 26 -57 9 -38 15 -74 11 -80 -3 -5 -2 -10 4 -10
13 0 34 -67 28 -91 -3 -10 -1 -19 4 -19 5 0 9 -30 9 -66 0 -40 -4 -63 -10 -59
-6 4 -7 -2 -2 -16 9 -23 -4 -147 -18 -164 -16 -21 -32 -126 -41 -280 -11 -193
-24 -1733 -15 -1724 4 4 11 116 15 250 5 151 8 -297 7 -1177 -1 -1155 -3
-1424 -14 -1437 -10 -11 -11 -31 -5 -79 l8 -63 6 60 c3 33 6 -185 6 -485 l0
-545 -8 410 c-5 226 -12 439 -17 475 -5 43 -7 -7 -5 -145 8 -596 10 -1822 3
-1770 -4 32 -11 567 -15 1187 -7 1055 -7 1130 9 1147 12 13 16 30 13 53 l-4
33 -1 -38 c-1 -21 -6 -36 -11 -33 -12 8 -24 3594 -12 3801 5 94 24 257 40 363
17 106 31 225 31 265 0 70 -23 189 -54 275 -8 23 -11 42 -6 42 6 0 10 -8 10
-17z m527 -50 c-2 -16 -4 -5 -4 22 0 28 2 40 4 28 2 -13 2 -35 0 -50z m-388
35 c-9 -16 -14 -19 -17 -9 -2 7 2 17 9 22 20 13 21 11 8 -13z m-61 -74 c0 -19
-2 -33 -4 -31 -8 8 -11 76 -3 71 4 -2 7 -20 7 -40z m-15 -616 c4 -29 3 -48 -3
-48 -6 0 -10 23 -10 52 0 62 5 60 13 -4z m64 -203 l0 -90 -7 105 c-4 58 -8
110 -10 115 -1 6 -1 24 0 40 5 55 18 -75 17 -170z m263 111 c0 -3 -4 -8 -10
-11 -5 -3 -10 -1 -10 4 0 6 5 11 10 11 6 0 10 -2 10 -4z m160 -51 c10 -12 10
-15 -4 -15 -9 0 -16 7 -16 15 0 8 2 15 4 15 2 0 9 -7 16 -15z m-440 -277 c0
-48 -12 -44 -17 7 -2 20 1 35 7 35 5 0 10 -19 10 -42z m-33 -30 c-3 -8 -6 -5
-6 6 -1 11 2 17 5 13 3 -3 4 -12 1 -19z m-50 -155 c-3 -10 -5 -4 -5 12 0 17 2
24 5 18 2 -7 2 -21 0 -30z m0 -140 c-2 -21 -4 -4 -4 37 0 41 2 58 4 38 2 -21
2 -55 0 -75z m0 -175 c-2 -24 -4 -7 -4 37 0 44 2 63 4 43 2 -21 2 -57 0 -80z
m0 -356 c-1 -53 -3 -7 -3 103 0 110 2 154 3 97 2 -57 2 -147 0 -200z m-1350
-749 c-2 -21 -4 -4 -4 37 0 41 2 58 4 38 2 -21 2 -55 0 -75z m3080 -1365 c-2
-18 -4 -6 -4 27 0 33 2 48 4 33 2 -15 2 -42 0 -60z m-3040 -1905 c-1 -76 -3
-14 -3 137 0 151 2 213 3 138 2 -76 2 -200 0 -275z m3005 -53 c-8 -201 -9
-215 -10 -99 -2 148 11 478 16 389 1 -30 -2 -161 -6 -290z m-3005 -137 c-3
-10 -5 -4 -5 12 0 17 2 24 5 18 2 -7 2 -21 0 -30z m0 -120 c-2 -16 -4 -3 -4
27 0 30 2 43 4 28 2 -16 2 -40 0 -55z m88 -643 c1 -121 -2 -214 -7 -207 -9 15
-11 443 -1 434 3 -4 7 -106 8 -227z m2902 -167 c-2 -21 -4 -4 -4 37 0 41 2 58
4 38 2 -21 2 -55 0 -75z m-1700 -65 c-3 -8 -6 -5 -6 6 -1 11 2 17 5 13 3 -3 4
-12 1 -19z m20 -370 c-2 -13 -4 -3 -4 22 0 25 2 35 4 23 2 -13 2 -33 0 -45z
m-1220 -110 c-3 -7 -5 -2 -5 12 0 14 2 19 5 13 2 -7 2 -19 0 -25z m1218 -46
c-3 -3 -11 0 -18 7 -9 10 -8 11 6 5 10 -3 15 -9 12 -12z m-1278 -44 c-3 -8 -6
-5 -6 6 -1 11 2 17 5 13 3 -3 4 -12 1 -19z m46 -53 c4 -8 2 -17 -3 -20 -6 -4
-10 3 -10 14 0 25 6 27 13 6z m-18 -35 c3 -5 1 -10 -4 -10 -6 0 -11 5 -11 10
0 6 2 10 4 10 3 0 8 -4 11 -10z m559 -33 c-13 -22 -37 -47 -46 -47 -15 0 -8
30 12 50 21 21 46 18 34 -3z m671 -25 c-3 -3 -11 0 -18 7 -9 10 -8 11 6 5 10
-3 15 -9 12 -12z m-1195 -40 c0 -15 -2 -15 -10 -2 -13 20 -13 33 0 25 6 -3 10
-14 10 -23z m-105 -482 c4 -221 3 -279 -6 -260 -8 17 -13 126 -15 335 -2 199
1 292 6 260 5 -27 11 -178 15 -335z m1005 336 c0 -2 -7 -9 -15 -16 -12 -10
-15 -10 -15 4 0 9 7 16 15 16 8 0 15 -2 15 -4z m-903 -83 c-3 -10 -5 -2 -5 17
0 19 2 27 5 18 2 -10 2 -26 0 -35z m13 -103 c0 -52 -15 -52 -17 0 0 22 3 40 8
40 5 0 9 -18 9 -40z m-53 -62 c-3 -7 -5 -2 -5 12 0 14 2 19 5 13 2 -7 2 -19 0
-25z m1417 -61 c-8 -78 -23 -82 -17 -5 5 59 11 83 19 76 2 -3 2 -35 -2 -71z
m-733 -64 c-19 -35 -39 -58 -46 -52 -3 4 6 21 20 38 30 34 41 40 26 14z m719
-60 c-1 -31 -3 -35 -11 -20 -6 9 -7 26 -4 37 10 30 15 24 15 -17z m405 -193
c-3 -5 -10 -10 -16 -10 -5 0 -9 5 -9 10 0 6 7 10 16 10 8 0 12 -4 9 -10z
m-1795 -145 c7 -9 10 -18 7 -22 -8 -7 -37 15 -37 28 0 14 16 11 30 -6z m2625
-245 c-3 -5 -14 -10 -23 -9 -14 0 -13 2 3 9 27 11 27 11 20 0z"/>
<path d="M2762 11930 c0 -19 2 -27 5 -17 2 9 2 25 0 35 -3 9 -5 1 -5 -18z"/>
<path d="M2742 11480 c0 -14 2 -19 5 -12 2 6 2 18 0 25 -3 6 -5 1 -5 -13z"/>
<path d="M2761 10684 c0 -11 3 -14 6 -6 3 7 2 16 -1 19 -3 4 -6 -2 -5 -13z"/>
<path d="M2736 10489 c-8 -42 0 -50 9 -9 4 17 5 34 2 36 -2 3 -7 -10 -11 -27z"/>
<path d="M2741 10424 c0 -11 3 -14 6 -6 3 7 2 16 -1 19 -3 4 -6 -2 -5 -13z"/>
<path d="M2733 10025 c0 -22 2 -30 4 -17 2 12 2 30 0 40 -3 9 -5 -1 -4 -23z"/>
<path d="M2736 9624 c-4 -9 -4 -19 -1 -22 2 -3 7 3 11 12 4 9 4 19 1 22 -2 3
-7 -3 -11 -12z"/>
<path d="M2521 9344 c0 -11 3 -14 6 -6 3 7 2 16 -1 19 -3 4 -6 -2 -5 -13z"/>
<path d="M3121 11214 c0 -11 3 -14 6 -6 3 7 2 16 -1 19 -3 4 -6 -2 -5 -13z"/>
<path d="M3121 10924 c0 -11 3 -14 6 -6 3 7 2 16 -1 19 -3 4 -6 -2 -5 -13z"/>
<path d="M3127 10797 c-3 -8 -1 -20 4 -28 6 -10 9 -7 9 14 0 29 -5 35 -13 14z"/>
<path d="M3122 10690 c0 -14 2 -19 5 -12 2 6 2 18 0 25 -3 6 -5 1 -5 -13z"/>
<path d="M3122 10595 c0 -16 2 -22 5 -12 2 9 2 23 0 30 -3 6 -5 -1 -5 -18z"/>
<path d="M2982 7560 c0 -19 2 -27 5 -17 2 9 2 25 0 35 -3 9 -5 1 -5 -18z"/>
<path d="M2992 6535 c0 -16 2 -22 5 -12 2 9 2 23 0 30 -3 6 -5 -1 -5 -18z"/>
<path d="M2991 5184 c0 -11 3 -14 6 -6 3 7 2 16 -1 19 -3 4 -6 -2 -5 -13z"/>
<path d="M2992 4780 c0 -14 2 -19 5 -12 2 6 2 18 0 25 -3 6 -5 1 -5 -13z"/>
<path d="M2993 4660 c0 -30 2 -43 4 -27 2 15 2 39 0 55 -2 15 -4 2 -4 -28z"/>
<path d="M2991 4414 c0 -11 3 -14 6 -6 3 7 2 16 -1 19 -3 4 -6 -2 -5 -13z"/>
<path d="M2992 4315 c0 -16 2 -22 5 -12 2 9 2 23 0 30 -3 6 -5 -1 -5 -18z"/>
<path d="M2853 12583 c9 -2 25 -2 35 0 9 3 1 5 -18 5 -19 0 -27 -2 -17 -5z"/>
<path d="M2843 12553 c9 -2 23 -2 30 0 6 3 -1 5 -18 5 -16 0 -22 -2 -12 -5z"/>
<path d="M3801 12334 c0 -11 3 -14 6 -6 3 7 2 16 -1 19 -3 4 -6 -2 -5 -13z"/>
<path d="M3752 11990 c0 -19 2 -27 5 -17 2 9 2 25 0 35 -3 9 -5 1 -5 -18z"/>
<path d="M3771 11464 c0 -11 3 -14 6 -6 3 7 2 16 -1 19 -3 4 -6 -2 -5 -13z"/>
<path d="M3778 11374 c-5 -4 -8 -21 -7 -38 0 -30 0 -30 10 -7 11 27 8 57 -3
45z"/>
<path d="M3803 10945 c0 -33 2 -45 4 -27 2 18 2 45 0 60 -2 15 -4 0 -4 -33z"/>
<path d="M3801 10714 c0 -11 3 -14 6 -6 3 7 2 16 -1 19 -3 4 -6 -2 -5 -13z"/>
<path d="M3806 10483 c-4 -9 -2 -21 4 -27 7 -7 10 -2 10 17 0 31 -5 34 -14 10z"/>
<path d="M3812 10295 c0 -16 2 -22 5 -12 2 9 2 23 0 30 -3 6 -5 -1 -5 -18z"/>
<path d="M3833 10065 c0 -22 2 -30 4 -17 2 12 2 30 0 40 -3 9 -5 -1 -4 -23z"/>
<path d="M4752 7885 c0 -16 2 -22 5 -12 2 9 2 23 0 30 -3 6 -5 -1 -5 -18z"/>
</g>
</svg>
