<?xml version="1.0" standalone="no"?>
<!DOCTYPE svg PUBLIC "-//W3C//DTD SVG 20010904//EN"
 "http://www.w3.org/TR/2001/REC-SVG-20010904/DTD/svg10.dtd">
<svg version="1.0" xmlns="http://www.w3.org/2000/svg"
 width="640.000000pt" height="1280.000000pt" viewBox="0 0 640.000000 1280.000000"
 preserveAspectRatio="xMidYMid meet">
<metadata>
Created by potrace 1.15, written by Peter Selinger 2001-2017
</metadata>
<g transform="translate(0.000000,1280.000000) scale(0.100000,-0.100000)"
fill="#000000" stroke="none">
<path d="M3050 12609 c-217 -12 -268 -22 -304 -59 -29 -29 -31 -35 -34 -123
-3 -71 -8 -97 -22 -112 -14 -16 -19 -47 -24 -171 -7 -144 -6 -153 15 -189 25
-42 25 -23 -6 -1040 -8 -258 -15 -550 -15 -647 0 -212 -16 -457 -36 -553 -26
-131 -59 -180 -250 -376 -267 -274 -398 -468 -492 -729 -81 -226 -100 -332
-112 -630 -30 -748 -40 -6839 -12 -6873 6 -7 24 -55 41 -107 56 -174 86 -203
241 -239 221 -52 544 -71 1235 -71 872 0 1156 35 1299 161 27 23 41 50 65 122
40 123 49 181 60 387 6 100 11 1607 12 3495 3 3467 5 3343 -37 3525 -45 197
-150 428 -284 630 -68 102 -115 157 -253 295 -171 172 -203 213 -238 306 -51
133 -66 281 -79 759 -9 326 -30 1006 -44 1402 -4 121 -3 130 20 173 22 42 24
57 24 184 0 131 -1 139 -25 171 -22 30 -25 44 -25 116 0 49 -6 96 -15 117 -14
33 -19 36 -87 52 -137 31 -348 39 -618 24z"/>
</g>
</svg>
