<?xml version="1.0" standalone="no"?>
<!DOCTYPE svg PUBLIC "-//W3C//DTD SVG 20010904//EN"
 "http://www.w3.org/TR/2001/REC-SVG-20010904/DTD/svg10.dtd">
<svg version="1.0" xmlns="http://www.w3.org/2000/svg"
 width="640.000000pt" height="1280.000000pt" viewBox="0 0 640.000000 1280.000000"
 preserveAspectRatio="xMidYMid meet">
<metadata>
Created by potrace 1.15, written by Peter Selinger 2001-2017
</metadata>
<g transform="translate(0.000000,1280.000000) scale(0.100000,-0.100000)"
fill="#9e9e9e" stroke="none">
<path d="M2415 12789 c-185 -7 -413 -29 -481 -48 -26 -7 -28 -11 -26 -47 2
-21 -4 -59 -13 -84 -42 -116 -81 -304 -136 -645 -22 -137 -45 -252 -50 -256
-11 -6 -35 -200 -44 -354 -3 -55 -10 -140 -15 -190 -24 -237 -61 -787 -82
-1225 -17 -342 -16 -1100 0 -1305 37 -446 94 -754 209 -1110 97 -303 269 -683
385 -853 17 -24 31 -49 32 -55 3 -20 52 -104 85 -144 17 -21 59 -76 93 -123
35 -47 104 -125 154 -175 76 -75 90 -93 83 -110 -4 -11 -8 -41 -8 -66 -1 -38
6 -56 41 -105 52 -74 73 -98 121 -136 53 -42 46 -20 -15 49 -41 46 -44 51 -12
22 21 -20 49 -44 60 -55 76 -67 125 -317 154 -779 13 -207 13 -1309 0 -1770
-16 -577 -44 -1214 -78 -1829 -8 -147 -13 -138 90 -178 65 -26 252 -36 342
-19 33 6 60 12 62 13 1 2 -6 95 -16 208 -60 663 -105 1401 -114 1865 -4 243
-4 245 4 70 11 -225 16 -271 18 -176 2 58 5 72 14 63 7 -7 20 -12 30 -12 16 0
18 12 20 118 l1 117 8 -165 c35 -669 70 -1198 116 -1727 l27 -313 23 0 c13 0
23 6 23 14 0 8 -13 160 -30 338 -67 736 -133 1709 -128 1907 1 60 3 48 9 -54
3 -71 7 -159 8 -195 1 -74 20 -66 22 10 1 25 10 -34 20 -130 20 -192 18 -136
-8 270 -12 204 -16 434 -17 995 -1 652 1 741 17 834 34 208 66 315 127 435 31
63 60 126 64 140 4 15 23 36 44 50 53 33 64 59 55 128 l-8 58 111 113 c119
122 209 249 287 402 25 50 71 133 102 185 224 375 405 908 489 1440 50 316 66
544 66 941 0 757 -38 1530 -105 2114 -29 249 -30 254 -79 535 -20 113 -61 360
-91 550 -66 415 -64 405 -77 392 -7 -7 -17 -7 -32 2 -11 8 -64 16 -116 20 -52
3 -144 10 -205 16 -323 28 -1133 38 -1630 19z m1477 -45 l136 -6 7 -35 c3 -19
4 -37 1 -40 -14 -14 -1539 -33 -1553 -20 -2 2 2 30 9 61 l11 58 626 -6 c344
-3 687 -9 763 -12z m-773 -124 c282 0 516 2 521 5 5 3 11 2 14 -3 2 -4 21
-134 40 -287 20 -154 38 -290 40 -302 4 -26 -10 -33 -69 -33 -23 0 -150 -13
-281 -30 -132 -16 -295 -33 -364 -36 -69 -3 -181 -17 -250 -30 -69 -13 -165
-27 -215 -30 -49 -3 -102 -7 -117 -9 l-28 -4 0 69 c0 129 49 637 66 689 3 11
18 12 67 7 35 -3 294 -6 576 -6z m1061 -660 c0 -5 -7 -10 -15 -10 -8 0 -15 5
-15 10 0 6 7 10 15 10 8 0 15 -4 15 -10z m-780 -40 c0 -5 -9 -10 -21 -10 -11
0 -17 5 -14 10 3 6 13 10 21 10 8 0 14 -4 14 -10z m234 1 c3 -5 -1 -12 -10
-15 -25 -10 -34 -7 -34 9 0 16 35 21 44 6z m-364 -11 c0 -5 -9 -10 -20 -10
-11 0 -20 5 -20 10 0 6 9 10 20 10 11 0 20 -4 20 -10z m-105 -40 c3 -5 -3 -10
-15 -10 -12 0 -18 5 -15 10 3 6 10 10 15 10 5 0 12 -4 15 -10z m-495 -31 c0
-5 -9 -9 -20 -9 -22 0 -27 16 -7 23 15 5 27 -1 27 -14z m218 -11 c-7 -20 -48
-23 -48 -4 0 11 9 16 26 16 16 0 24 -5 22 -12z m-598 -69 c0 -5 -7 -9 -15 -9
-15 0 -20 12 -9 23 8 8 24 -1 24 -14z m150 12 c0 -6 -5 -13 -10 -16 -15 -9
-43 3 -35 15 8 13 45 13 45 1z m-455 -70 c7 -12 -12 -24 -25 -16 -11 7 -4 25
10 25 5 0 11 -4 15 -9z m-110 -11 c-3 -5 -13 -10 -21 -10 -8 0 -14 5 -14 10 0
6 9 10 21 10 11 0 17 -4 14 -10z m1575 -5780 c24 -8 24 -8 -5 -9 -16 0 -37 4
-45 9 -12 8 -11 10 5 9 11 -1 31 -5 45 -9z m-183 -402 c-3 -8 -6 -5 -6 6 -1
11 2 17 5 13 3 -3 4 -12 1 -19z m-40 -1825 c-1 -65 -3 -14 -3 112 0 127 2 180
3 118 2 -62 2 -165 0 -230z m80 85 c-2 -13 -4 -3 -4 22 0 25 2 35 4 23 2 -13
2 -33 0 -45z m50 -60 c-2 -24 -4 -5 -4 42 0 47 2 66 4 43 2 -24 2 -62 0 -85z
m-40 -181 c-2 -23 -3 -1 -3 48 0 50 1 68 3 42 2 -26 2 -67 0 -90z"/>
<path d="M2841 5464 c0 -11 3 -14 6 -6 3 7 2 16 -1 19 -3 4 -6 -2 -5 -13z"/>
<path d="M2862 5375 c0 -16 2 -22 5 -12 2 9 2 23 0 30 -3 6 -5 -1 -5 -18z"/>
<path d="M2870 5332 c0 -6 7 -60 15 -119 23 -166 34 -494 30 -879 l-3 -349 12
390 12 390 5 -430 4 -430 1 445 c1 245 -2 504 -5 575 l-8 130 -3 -135 -3 -135
-8 152 c-6 139 -35 392 -45 402 -2 2 -4 -1 -4 -7z"/>
<path d="M2911 5264 c0 -11 3 -14 6 -6 3 7 2 16 -1 19 -3 4 -6 -2 -5 -13z"/>
<path d="M2923 5120 c0 -25 2 -35 4 -22 2 12 2 32 0 45 -2 12 -4 2 -4 -23z"/>
<path d="M2904 3810 c0 -91 2 -128 3 -82 2 45 2 119 0 165 -1 45 -3 8 -3 -83z"/>
<path d="M2893 3500 c0 -41 2 -58 4 -37 2 20 2 54 0 75 -2 20 -4 3 -4 -38z"/>
<path d="M3393 3140 c0 -25 2 -35 4 -22 2 12 2 32 0 45 -2 12 -4 2 -4 -23z"/>
<path d="M3321 3154 c0 -11 3 -14 6 -6 3 7 2 16 -1 19 -3 4 -6 -2 -5 -13z"/>
<path d="M2872 3100 c0 -14 2 -19 5 -12 2 6 2 18 0 25 -3 6 -5 1 -5 -13z"/>
<path d="M3322 3100 c0 -14 2 -19 5 -12 2 6 2 18 0 25 -3 6 -5 1 -5 -13z"/>
<path d="M3443 2920 c0 -25 2 -35 4 -22 2 12 2 32 0 45 -2 12 -4 2 -4 -23z"/>
<path d="M3453 2805 c0 -22 2 -30 4 -17 2 12 2 30 0 40 -3 9 -5 -1 -4 -23z"/>
<path d="M3462 2700 c0 -14 2 -19 5 -12 2 6 2 18 0 25 -3 6 -5 1 -5 -13z"/>
<path d="M2770 1220 l-30 -59 29 -16 c16 -8 60 -24 98 -35 56 -17 60 -19 24
-15 -24 3 -68 14 -98 24 l-54 18 -29 -43 c-17 -23 -30 -46 -30 -51 0 -13 143
-72 228 -94 95 -24 214 -24 314 0 l77 18 6 -24 c19 -79 302 -160 379 -109 32
20 33 37 4 62 -12 10 -18 14 -15 8 11 -19 -53 -39 -119 -38 -91 1 -163 46
-155 97 0 4 -9 7 -21 8 -35 2 46 16 188 33 71 8 146 20 167 26 l37 11 -16 28
c-9 15 -24 37 -33 50 l-17 22 -74 -35 c-41 -18 -97 -42 -125 -51 -75 -27 -205
-30 -319 -10 -53 10 -96 18 -96 19 0 0 64 1 143 2 153 1 287 24 369 63 24 12
32 18 20 15 -21 -5 -22 -3 -14 13 5 10 12 25 14 33 4 11 9 7 18 -12 7 -16 17
-28 22 -28 5 0 -3 17 -17 37 -14 21 -25 43 -25 50 0 22 -18 23 -52 3 -180
-106 -520 -101 -708 10 -28 16 -53 30 -55 30 -3 0 -18 -27 -35 -60z"/>
<path d="M3095 836 c-33 -7 -95 -23 -138 -35 l-79 -23 -134 22 -134 22 -28
-24 c-53 -42 -87 -99 -87 -144 0 -32 -3 -40 -16 -37 -9 3 -23 -3 -32 -11 -17
-17 -28 -15 -142 29 -28 11 19 -26 60 -47 28 -15 26 -16 -70 -17 -80 -1 -113
4 -168 23 l-68 23 3 -26 c7 -60 145 -81 311 -46 84 17 118 30 212 77 33 16 55
24 48 18 -7 -8 -9 -20 -3 -35 5 -13 6 -26 3 -29 -16 -16 69 -3 132 20 99 35
253 54 455 54 213 0 316 -12 438 -50 93 -30 141 -36 177 -20 11 5 15 9 8 9 -8
1 -3 21 13 61 13 33 24 67 24 77 0 15 2 15 15 -3 14 -18 14 -17 4 9 -9 19 -19
27 -38 27 -48 0 -69 10 -64 31 4 15 9 17 27 8 20 -10 20 -10 2 5 -25 20 -64
20 -162 0 -90 -19 -157 -15 -264 16 -94 26 -226 34 -305 16z"/>
<path d="M4480 577 c0 -94 -110 -136 -464 -177 -479 -56 -1098 -57 -1566 -4
-243 28 -345 56 -395 110 -14 15 -25 21 -25 14 0 -7 -3 -11 -6 -7 -3 3 -54
-15 -112 -40 -59 -25 -125 -49 -147 -52 -36 -6 -28 -9 80 -29 407 -75 797
-112 1268 -119 369 -5 519 0 842 33 283 29 710 93 759 115 16 7 13 8 -11 3
-26 -4 -32 -3 -27 9 8 22 -49 81 -119 124 -34 20 -65 42 -69 47 -4 6 -8 -6 -8
-27z"/>
<path d="M4970 604 c0 -2 35 -20 77 -40 92 -41 143 -78 143 -103 0 -9 -12 -29
-27 -44 -121 -115 -595 -207 -1303 -253 -311 -20 -1081 -23 -1375 -6 -622 38
-1064 116 -1212 215 -88 59 -68 98 88 171 41 20 67 35 58 36 -31 0 -195 -88
-223 -120 -29 -35 -29 -65 0 -122 38 -74 256 -167 489 -208 326 -57 923 -113
1365 -126 510 -16 1579 95 1870 193 115 38 231 98 269 136 46 48 55 116 20
153 -33 36 -239 137 -239 118z"/>
<path d="M3608 483 c7 -3 16 -2 19 1 4 3 -2 6 -13 5 -11 0 -14 -3 -6 -6z"/>
<path d="M3543 473 c9 -2 23 -2 30 0 6 3 -1 5 -18 5 -16 0 -22 -2 -12 -5z"/>
<path d="M2968 463 c6 -2 18 -2 25 0 6 3 1 5 -13 5 -14 0 -19 -2 -12 -5z"/>
<path d="M3473 463 c9 -2 23 -2 30 0 6 3 -1 5 -18 5 -16 0 -22 -2 -12 -5z"/>
<path d="M3053 453 c9 -2 25 -2 35 0 9 3 1 5 -18 5 -19 0 -27 -2 -17 -5z"/>
<path d="M3383 453 c9 -2 25 -2 35 0 9 3 1 5 -18 5 -19 0 -27 -2 -17 -5z"/>
<path d="M3163 438 c15 -10 173 -10 163 -1 -4 4 -45 8 -91 8 -46 0 -78 -3 -72
-7z"/>
<path d="M3088 423 c7 -3 16 -2 19 1 4 3 -2 6 -13 5 -11 0 -14 -3 -6 -6z"/>
<path d="M3393 423 c9 -2 25 -2 35 0 9 3 1 5 -18 5 -19 0 -27 -2 -17 -5z"/>
</g>
</svg>
