<svg xmlns="http://www.w3.org/2000/svg" version="1.1" xmlns:xlink="http://www.w3.org/1999/xlink" xmlns:svgjs="http://svgjs.com/svgjs" width="1440" height="560" preserveAspectRatio="none" viewBox="0 0 1440 560"><g mask="url(&quot;#SvgjsMask1035&quot;)" fill="none"><path d="M325.384116227794 405.2358888586228L357.62449873434343 556.9149631400373 509.30357301575805 524.674580633488 477.06319050920854 372.99550635207333z" fill="rgba(255, 255, 255, 0.4)" class="triangle-float2"></path><path d="M360.67451500997635 224.67331157458486L455.08491171045466 208.02621137690107 438.4378115127709 113.61581467642274 344.0274148122926 130.2629148741065z" fill="rgba(255, 255, 255, 0.4)" class="triangle-float2"></path><path d="M1016.6966667829522 58.05649768392723L962.7023199097598-90.29175112836904 814.3540710974636-36.29740425517667 868.3484179706559 112.0508445571196z" fill="rgba(255, 255, 255, 0.4)" class="triangle-float3"></path><path d="M752.5096632795113 336.42489116282354L837.4116118688987 430.718057799582 931.7047785056573 345.81610921019455 846.8028299162697 251.52294257343607z" fill="rgba(255, 255, 255, 0.4)" class="triangle-float2"></path><path d="M523.355979984297 381.4042603687282L635.9562589875537 498.00526261787616 752.5572612367016 385.40498361461954 639.956982233445 268.8039813654716z" fill="rgba(255, 255, 255, 0.4)" class="triangle-float2"></path><path d="M9.943521379139177-65.8249844198952L-86.04807859996563 44.60071955466391 24.377625374593485 140.59231953376872 120.36922535369828 30.166615559209603z" fill="rgba(255, 255, 255, 0.4)" class="triangle-float2"></path><path d="M340.64311563936604 110.55260778034375L290.3691649181588 187.9677030884717 367.78426022628673 238.24165380967895 418.058210947494 160.826558501551z" fill="rgba(255, 255, 255, 0.4)" class="triangle-float3"></path><path d="M953.0584015197704 85.85334961704251L1064.1488010215155 109.46634296968251 1087.7617943741557-1.6240565320626672 976.6713948724105-25.23704988470267z" fill="rgba(255, 255, 255, 0.4)" class="triangle-float3"></path><path d="M1433.3818555857033 158.68151125953983L1516.9527995807111 83.43389530064645 1441.7051836218177-0.13704869436136846 1358.1342396268099 75.11056726453201z" fill="rgba(255, 255, 255, 0.4)" class="triangle-float2"></path></g><defs><mask id="SvgjsMask1035"><rect width="1440" height="560" fill="#ffffff"></rect></mask><style>
            @keyframes float1 {
                0%{transform: translate(0, 0)}
                50%{transform: translate(-10px, 0)}
                100%{transform: translate(0, 0)}
            }

            .triangle-float1 {
                animation: float1 5s infinite;
            }

            @keyframes float2 {
                0%{transform: translate(0, 0)}
                50%{transform: translate(-5px, -5px)}
                100%{transform: translate(0, 0)}
            }

            .triangle-float2 {
                animation: float2 4s infinite;
            }

            @keyframes float3 {
                0%{transform: translate(0, 0)}
                50%{transform: translate(0, -10px)}
                100%{transform: translate(0, 0)}
            }

            .triangle-float3 {
                animation: float3 6s infinite;
            }
        </style></defs></svg>