<svg xmlns="http://www.w3.org/2000/svg" version="1.1" xmlns:xlink="http://www.w3.org/1999/xlink" xmlns:svgjs="http://svgjs.com/svgjs" width="1440" height="560" preserveAspectRatio="none" viewBox="0 0 1440 560">
    <g mask="url(&quot;#SvgjsMask1075&quot;)" fill="none">
        <path d="M1209.8355565364338 270.50991763386986L1083.5960157015509 243.6768748872048 1056.7629729548858 369.9164157220878 1183.0025137897687 396.7494584687529z" fill="rgba(255, 255, 255, 0.6)" class="triangle-float3"></path>
        <path d="M583.245905156354 190.53215692733264L495.0147276272324 170.16238457030593 474.6449552702057 258.39356209942747 562.8761327993273 278.7633344564542z" fill="rgba(255, 255, 255, 0.6)" class="triangle-float2"></path>
        <path d="M96.12114678306348-16.89421650197124L132.15194630929176 100.95721847446983 250.00338128573281 64.92641894824156 213.97258175950455-52.92501602819951z" fill="rgba(255, 255, 255, 0.6)" class="triangle-float2"></path>
        <path d="M543.8058083165236 237.29383657558895L595.5725579535795 139.93474050822027 498.2134618862108 88.1679908711643 446.44671224915487 185.52708693853302z" fill="rgba(255, 255, 255, 0.6)" class="triangle-float2"></path>
        <path d="M498.81276844425133 385.0936129157026L559.2681136099715 494.1579426560792 668.3324433503481 433.70259749035904 607.8770981846279 324.63826774998245z" fill="rgba(255, 255, 255, 0.6)" class="triangle-float3"></path>
        <path d="M1478.1977902738695 35.59423074347009L1395.1504735458852-74.61328086987142 1284.9429619325438 8.434035858112779 1367.990278660528 118.64154747145429z" fill="rgba(255, 255, 255, 0.6)" class="triangle-float3"></path>
        <path d="M737.6500739631788 660.5336775485787L783.6876010885 509.95171140218696 633.1056349421083 463.91418427686574 587.068107816787 614.4961504232575z" fill="rgba(255, 255, 255, 0.6)" class="triangle-float1"></path>
        <path d="M435.9884884585352 275.9648321630534L337.8687971439633 187.61746527815725 249.52143025906713 285.73715659272915 347.641121573639 374.0845234776253z" fill="rgba(255, 255, 255, 0.6)" class="triangle-float3"></path>
        <path d="M507.5286663117253 506.09327088491415L427.2244087422011 406.9257715546504 328.05690941193734 487.2300291241746 408.36116698146157 586.3975284544383z" fill="rgba(255, 255, 255, 0.6)" class="triangle-float1"></path>
        <path d="M479.3671668730738 304.009965571804L434.9075769081055 408.75019577432863 539.6478071106301 453.209785739297 584.1073970755984 348.4695555367723z" fill="rgba(255, 255, 255, 0.6)" class="triangle-float2"></path>
        <path d="M1498.6847440613215 259.4798263255111L1455.767772817467 163.08673068722416 1359.37467717918 206.0037019310787 1402.2916484230345 302.3967975693656z" fill="rgba(255, 255, 255, 0.6)" class="triangle-float2"></path>
        <path d="M975.5346778225095 272.6647522669008L1102.185683282498 166.39194029719272 995.9128713127899 39.74093483720418 869.2618658528014 146.01374680691225z" fill="rgba(255, 255, 255, 0.6)" class="triangle-float2"></path>
        <path d="M201.96322856307614 420.6727650010237L308.9242120243735 337.1056860256894 225.3571330490392 230.14470256439208 118.39614958774185 313.71178153972636z" fill="rgba(255, 255, 255, 0.6)" class="triangle-float3"></path>
        <path d="M829.0551074007778 613.1575909102551L821.2561653877733 464.3449123404489 672.4434868179671 472.14385435345343 680.2424288309717 620.9565329232596z" fill="rgba(255, 255, 255, 0.6)" class="triangle-float2"></path>
        <path d="M1328.2502187955786 513.8765720813863L1347.8041475821371 429.1792012949369 1263.106776795688 409.62527250837826 1243.5528480091293 494.32264329482757z" fill="rgba(255, 255, 255, 0.6)" class="triangle-float2"></path>
        <path d="M707.2715380056821 404.29816443836444L604.2882868344801 317.8849563631716 517.8750787592874 420.86820753437365 620.8583299304894 507.28141560956647z" fill="rgba(255, 255, 255, 0.6)" class="triangle-float3"></path>
    </g>
    <defs>
        <mask id="SvgjsMask1075">
            <rect width="1440" height="560" fill="#ffffff"></rect>
        </mask>
        <style>
            @keyframes float1 {
                0%{transform: translate(0, 0)}
                50%{transform: translate(-10px, 0)}
                100%{transform: translate(0, 0)}
            }

            .triangle-float1 {
                animation: float1 5s infinite;
            }

            @keyframes float2 {
                0%{transform: translate(0, 0)}
                50%{transform: translate(-5px, -5px)}
                100%{transform: translate(0, 0)}
            }

            .triangle-float2 {
                animation: float2 4s infinite;
            }

            @keyframes float3 {
                0%{transform: translate(0, 0)}
                50%{transform: translate(0, -10px)}
                100%{transform: translate(0, 0)}
            }

            .triangle-float3 {
                animation: float3 6s infinite;
            }
        </style>
    </defs>
</svg>
        
          




